inDegrees=no
num_controls=7
num_derivatives=13
num_iterations=138
num_multipliers=7
num_parameters=0
num_slacks=7
num_states=26
objective=5.432618
objective_accelerations=0.510255
objective_balance=0.061463
objective_effort=0.247217
objective_height=4.504990
objective_ligament=0.108692
solver_duration=1533.029589
status=Solve_Succeeded
success=true
DataType=double
version=3
OpenSimVersion=4.4-2022-07-23-0e9fedc
endheader
time	/jointset/ground_pelvis/pelvis_tilt/value	/jointset/ground_pelvis/pelvis_tx/value	/jointset/ground_pelvis/pelvis_ty/value	/jointset/hip_l/hip_flexion_l/value	/jointset/hip_l/hip_adduction_l/value	/jointset/hip_l/hip_rotation_l/value	/jointset/back/lumbar_extension/value	/jointset/patellofemoral_l/patellar_flexion_l/value	/jointset/knee_l/knee_flexion_l/value	/jointset/knee_l/knee_adduction_l/value	/jointset/knee_l/knee_rotation_l/value	/jointset/ankle_l/ankle_angle_l/value	/jointset/subtalar_l/subtalar_angle_l/value	/jointset/ground_pelvis/pelvis_tilt/speed	/jointset/ground_pelvis/pelvis_tx/speed	/jointset/ground_pelvis/pelvis_ty/speed	/jointset/hip_l/hip_flexion_l/speed	/jointset/hip_l/hip_adduction_l/speed	/jointset/hip_l/hip_rotation_l/speed	/jointset/back/lumbar_extension/speed	/jointset/patellofemoral_l/patellar_flexion_l/speed	/jointset/knee_l/knee_flexion_l/speed	/jointset/knee_l/knee_adduction_l/speed	/jointset/knee_l/knee_rotation_l/speed	/jointset/ankle_l/ankle_angle_l/speed	/jointset/subtalar_l/subtalar_angle_l/speed	/forceset/tau_hip_flexion_l	/forceset/tau_hip_adduction_l	/forceset/tau_hip_rotation_l	/forceset/tau_knee_flexion_l	/forceset/tau_ankle_angle_l	/forceset/tau_subtalar_angle_l	/forceset/tau_lumbar_extension	lambda_cid13_p0	lambda_cid13_p1	lambda_cid13_p2	lambda_cid13_p3	lambda_cid13_p4	lambda_cid13_p5	lambda_cid14_p0	/jointset/ground_pelvis/pelvis_tilt/accel	/jointset/ground_pelvis/pelvis_tx/accel	/jointset/ground_pelvis/pelvis_ty/accel	/jointset/hip_l/hip_flexion_l/accel	/jointset/hip_l/hip_adduction_l/accel	/jointset/hip_l/hip_rotation_l/accel	/jointset/back/lumbar_extension/accel	/jointset/patellofemoral_l/patellar_flexion_l/accel	/jointset/knee_l/knee_flexion_l/accel	/jointset/knee_l/knee_adduction_l/accel	/jointset/knee_l/knee_rotation_l/accel	/jointset/ankle_l/ankle_angle_l/accel	/jointset/subtalar_l/subtalar_angle_l/accel	gamma_cid13_p0	gamma_cid13_p1	gamma_cid13_p2	gamma_cid13_p3	gamma_cid13_p4	gamma_cid13_p5	gamma_cid14_p0
0	-0.04572550359871866	0.07165913560098496	0.8962044818608529	0.1955292361009247	-0.3192602647184351	-0.5367506892782909	-0.137903700187828	0.07015350928391904	0.07015350928391206	-0.1745329251994329	-0.1685671402398561	-0.06701017130107029	0.007369576858085083	0	0	0	0	0	0	0	0	0	0	0	0	0	0.1122503708242012	-0.1157364913178795	-0.04126521418482579	-0.2515053916982712	0.2184703102333836	-0.02215817289356066	-0.05458632654856246	33.66245792601324	-1.681133353849066	6.112051292957823	-7.840324489521008	-519.6326903481529	-84.20120607602401	-41.38508603920295	-4.441226756965781	-1.623434121996795	-0.8702165351961988	11.07427342272158	-2.005036680361715	3.156055306950731	-2.749446775498398	8.204315009577286	8.204315009576902	0.3452837036760326	-0.282844540265634	1.564039875637149	-1.349104420705098	-2.823669332427284e-08	9.649081293828451e-08	8.657407893195848e-08	9.40901908540925e-09	1.303336655616568e-09	-8.223945305799031e-09	-6.816255444457802e-09
0.01	-0.04593858150483508	0.07157922861618769	0.8961622131780961	0.1960652536715962	-0.3193588136065231	-0.5365924091941322	-0.1380458782770767	0.07055176544221657	0.07055176544219739	-0.1745184037702847	-0.1685762034927163	-0.06693551664197886	0.007302015687119408	-0.04241768413872793	-0.01589183203636959	-0.008421907635724485	0.1066979392198203	-0.01960635493222861	0.03151872050107735	-0.02818876975459037	0.07928378475631739	0.07928378475631327	0.00290702107815113	-0.001793077157228697	0.01488443543525334	-0.01342470531012145	0.1081709501769499	-0.1172205736231223	-0.0404861983078113	-0.2465711742076526	0.2106577648926169	-0.0167407674260818	-0.05106739496124822	31.34431560010607	-3.538972479590084	6.306524090464154	-7.360705374519996	-520.4497613342718	-87.92767429326241	-41.39262109373797	-4.11236521999338	-1.558621124237435	-0.8234032797632833	10.39170728598693	-1.922942115555178	3.12917685435298	-2.816564861488102	7.735294536071521	7.73529453607112	0.2637932543189296	-0.124595259650152	1.443670482424458	-1.326049233012695	-5.85748814041288e-08	1.193506148649192e-07	1.285003459125449e-07	3.428480097286395e-08	-1.546805663539039e-07	-2.587944508730609e-08	-1.185118624204296e-08
0.02	-0.04656990144787022	0.07134309063507034	0.8960366803385812	0.1976530812573935	-0.319650327487115	-0.5361230626184567	-0.1384625386210689	0.07173183631358965	0.07173183631358732	-0.1744747339525062	-0.1686026087083611	-0.06671341260754395	0.007102828333683293	-0.08364840738416825	-0.03124619926401821	-0.01665283135161331	0.2103620030146024	-0.03859299850052422	0.06221329830882977	-0.05489645095113564	0.1563629426091441	0.1563629426091432	0.005829319933673701	-0.00346839256240657	0.02948987506871039	-0.02632523649412575	0.1040915295303603	-0.1187046559283844	-0.03970718243081576	-0.241636956716719	0.2028452195519632	-0.01132336195856169	-0.04754846337346161	29.07672528621161	-5.405740018801334	6.502510202042547	-6.992499206813656	-520.5179255210955	-91.50862847801191	-41.41478462460011	-4.203834578308267	-1.515941160252617	-0.8320197512290733	10.46749833771398	-1.881094407575142	2.991226768285753	-2.453229063889417	7.763389628879176	7.763389628880266	0.3483392591502715	-0.2592921898554803	1.508240715277875	-1.244269595481711	-8.891306948398476e-08	1.42210416791554e-07	1.704266128931314e-07	5.916058286031866e-08	-3.106644693634245e-07	-4.353494486881316e-08	-1.688611703962812e-08
0.03	-0.04760819973026918	0.07095607487773929	0.8958295528000186	0.200263434694407	-0.3201286193314808	-0.5353509772660281	-0.1391383937464857	0.07367221517406036	0.07367221517409574	-0.1744017783985525	-0.1686454718298031	-0.0663465046055967	0.006777315118867456	-0.1238233660207745	-0.04606731259035613	-0.0247579279211299	0.3112249934253858	-0.0569618129345746	0.09207262107768717	-0.08003219459282539	0.2313547477503949	0.231354747750401	0.008744708671248578	-0.005083006432256556	0.04384436096795107	-0.038691281333942	0.09969225464525927	-0.1134116807068725	-0.03896574458022575	-0.2370953228350166	0.1987642781340489	-0.01210430022269321	-0.04386261774828003	27.76837518381421	-4.924754591400195	6.525497723272284	-6.634360883814836	-520.5758996507801	-89.64199128957205	-41.45071797705523	-3.896156086742379	-1.451738544525473	-0.7976051069937241	9.823128579072558	-1.799268266293998	2.963591613544438	-2.507390083496903	7.313367093799966	7.313367093800363	0.260617651502244	-0.1093428861025015	1.391943399515355	-1.219894169661023	-1.14459968275262e-07	1.512348904518738e-07	2.09887139652056e-07	7.859876165012352e-08	-4.343165916502587e-07	-6.359451031296536e-08	-2.255979109539954e-08
0.04	-0.04904261351510548	0.07042353956200442	0.895541804196325	0.2038679038727716	-0.3207874979811849	-0.5342842373694269	-0.140058334922158	0.0763517703133824	0.07635177031338146	-0.174300173163067	-0.1687038404700062	-0.06583747357020321	0.006330717007367826	-0.1628715078736222	-0.0603501109447858	-0.03277704437781695	0.4091851512886423	-0.07471035956758668	0.1211442071408993	-0.1037136610020458	0.3041981983737297	0.3041981983737406	0.01155925622646492	-0.00656949632422005	0.0579144817579221	-0.05054221583093878	0.09529297975985809	-0.108118705485365	-0.03822430672999028	-0.2325536889533865	0.1946833367160933	-0.01288523848684814	-0.04017677212330784	26.50649652981384	-4.45060614411125	6.548091821780947	-6.382604525207763	-519.9541385539665	-87.63817112928881	-41.49938556683703	-3.978471221556562	-1.408278165871003	-0.8148237286631703	9.886931828208635	-1.757040847367499	2.833679427156695	-2.162373617395617	7.333718725296034	7.333718725296655	0.3281710226785484	-0.2336673942781987	1.451367693423914	-1.141247526917854	-1.399080775966716e-07	1.599740996118573e-07	2.492968264064103e-07	9.79248249121418e-08	-5.57302079283017e-07	-8.370364412129582e-08	-2.824663511525727e-08
0.05	-0.05086222134591863	0.06975064816571369	0.8951741016058438	0.2084385301346426	-0.3216207197454881	-0.5329308538463228	-0.141207454738965	0.07974960412150504	0.0797496041215023	-0.1741707640238764	-0.1687768231476651	-0.06518920209979547	0.005768200905615741	-0.2008413143008083	-0.07415781274713368	-0.0407605351972286	0.5044669649069823	-0.09182025240542153	0.1494066873321049	-0.1258880698950157	0.3750079159258471	0.375007915925863	0.01430626225742281	-0.00800360289447951	0.07166685045787495	-0.06187879042496302	0.08976790705858258	-0.1038966348579829	-0.03718007603350227	-0.2265147171585583	0.1871305782448182	-0.01138619338300418	-0.03575332616700055	24.20762799172142	-4.748537073529993	6.652028790077432	-5.445350171088058	-519.3953708018496	-87.3493562704507	-41.55949736712983	-3.674936577127488	-1.356443111478142	-0.7897834346475785	9.277813780756448	-1.670933342109254	2.803628050697053	-2.211639655714609	6.900506866832846	6.90050686683313	0.2455714844501649	-0.09473534813870146	1.326218977511087	-1.117582488551881	-1.570937655888367e-07	1.669693729164476e-07	2.783335625325433e-07	1.112913180245179e-07	-6.403846717371078e-07	-9.655048122998259e-08	-3.210024509484575e-08
